#!OML:ASF G:\ViconDB\ViconDB\414\test\team2\shane.ASF
:FULLY-SPECIFIED
:DEGREES
392
root 0.198869 16.6733 32.929 -13.7989 13.7786 -5.93159
lowerback 7.89048 -0.175871 3.30354
upperback 7.27786 -0.0979185 4.82224
thorax 3.14776 -0.00889767 3.1623
lowerneck -5.23472 -4.24909 -5.94774
upperneck 49.4903 -5.16892 0.792265
head 20.97 -2.83281 0.683873
rclavicle 1.78906e-015 -4.85035e-014
rhumerus -34.1219 -2.4858 -91.8951
rradius 36.5622
rwrist 29.4318
rhand -24.5702 -14.6059
rfingers 7.12502
rthumb 1.92666 -44.5769
lclavicle -5.36719e-015 5.56597e-015
lhumerus -46.5198 -31.8882 106.15
lradius 39.0547
lwrist -16.73
lhand -36.7414 4.41926
lfingers 7.12502
lthumb -9.82513 34.17
rfemur 10.815 -13.1194 19.3419
rtibia 31.377
rfoot -25.1188 -5.22212
rtoes -9.78405
lfemur -10.8739 3.18818 -5.73117
ltibia 60.9092
lfoot -23.1973 -5.43217
ltoes -12.9277
393
root 0.212706 16.6971 33.1084 -13.7573 13.5815 -5.7649
lowerback 7.91598 -0.00667508 3.6192
upperback 7.23047 0.151847 4.50163
thorax 3.07615 0.137261 2.63581
lowerneck -5.15813 -4.28802 -5.85271
upperneck 49.1517 -5.32648 0.966684
head 20.6929 -2.8585 0.732598
rclavicle -4.00551e-014 1.98785e-014
rhumerus -34.1219 -2.4858 -91.8951
rradius 36.5622
rwrist 29.4318
rhand -24.5702 -14.6059
rfingers 7.12502
rthumb 1.92666 -44.5769
lclavicle -4.00551e-014 1.98785e-014
lhumerus -46.5198 -31.8882 106.15
lradius 39.0547
lwrist -16.73
lhand -36.7414 4.41926
lfingers 7.12502
lthumb -9.82513 34.17
rfemur 12.1122 -12.8624 19.2006
rtibia 30.003
rfoot -24.974 -4.97895
rtoes -9.0156
lfemur -11.3039 3.45794 -6.32851
ltibia 58.5154
lfoot -24.0227 -5.33896
ltoes -12.3507
394
root 0.235631 16.7219 33.2832 -13.6888 13.334 -5.86252
lowerback 7.80825 0.0645273 4.0367
upperback 7.20854 0.262156 4.40574
thorax 3.11457 0.212516 2.29667
lowerneck -5.3492 -4.27024 -5.86617
upperneck 48.8563 -5.22242 0.849069
head 20.51 -2.83482 0.688446
rclavicle 4.77083e-015 3.97569e-015
rhumerus -34.1219 -2.4858 -91.8951
rradius 36.5622
rwrist 29.4318
rhand -24.5702 -14.6059
rfingers 7.12502
rthumb 1.92666 -44.5769
lclavicle -4.00551e-014 1.98785e-014
lhumerus -46.5198 -31.8882 106.15
lradius 39.0547
lwrist -16.73
lhand -36.7414 4.41926
lfingers 7.12502
lthumb -9.82513 34.17
rfemur 13.4004 -12.656 19.3406
rtibia 28.4316
rfoot -24.406 -5.09922
rtoes -10.3136
lfemur -11.7915 3.6318 -6.66267
ltibia 55.9505
lfoot -24.5641 -5.28517
ltoes -13.6285
395
root 0.262046 16.7533 33.4608 -13.5815 13.0171 -5.93998
lowerback 7.75995 0.151992 4.63266
upperback 7.16251 0.409181 4.21005
thorax 3.10008 0.315195 1.75233
lowerneck -5.58115 -4.2521 -5.92749
upperneck 48.3833 -5.15907 0.851854
head 20.2208 -2.82294 0.707297
rclavicle 3.76697e-014 -5.32743e-014
rhumerus -34.1219 -2.4858 -91.8951
rradius 36.5622
rwrist 29.4318
rhand -24.5702 -14.6059
rfingers 7.12502
rthumb 1.92666 -44.5769
lclavicle 3.76697e-014 -5.32743e-014
lhumerus -46.5198 -31.8882 106.15
lradius 39.0547
lwrist -16.73
lhand -36.7414 4.41926
lfingers 7.12502
lthumb -9.82513 34.17
rfemur 14.7412 -12.5319 19.4053
rtibia 26.688
rfoot -23.8907 -4.79993
rtoes -10.0517
lfemur -12.1784 3.90135 -6.96674
ltibia 53.1865
lfoot -25.2927 -5.84744
ltoes -12.7802
396
root 0.292944 16.7813 33.6425 -13.2256 12.6778 -5.71959
lowerback 7.53527 0.2649 4.8033
upperback 7.02323 0.559097 3.99675
thorax 3.08197 0.40015 1.42742
lowerneck -5.8404 -4.18307 -6.18192
upperneck 47.9112 -5.03188 0.996027
head 19.9629 -2.8037 0.84256
rclavicle 1.85864e-014 3.02153e-014
rhumerus -34.1219 -2.4858 -91.8951
rradius 36.5622
rwrist 29.4318
rhand -24.5702 -14.6059
rfingers 7.12502
rthumb 1.92666 -44.5769
lclavicle 1.85864e-014 3.02153e-014
lhumerus -46.5198 -31.8882 106.15
lradius 39.0547
lwrist -16.73
lhand -36.7414 4.41926
lfingers 7.12502
lthumb -9.82513 34.17
rfemur 15.9579 -12.513 19.0425
rtibia 24.8218
rfoot -23.2508 -4.27276
rtoes -10.0816
lfemur -12.7203 4.19292 -7.64593
ltibia 50.3553
lfoot -26.0498 -6.47229
ltoes -12.372
397
root 0.321969 16.8091 33.8225 -13.05 12.2975 -5.99833
lowerback 7.47609 0.344568 5.33257
upperback 6.82182 0.696051 3.98973
thorax 2.91507 0.484975 1.11633
lowerneck -5.97675 -4.13198 -6.31432
upperneck 47.2334 -4.84953 0.868612
head 19.5059 -2.77239 0.831668
rclavicle 1.67973e-014 -9.22361e-014
rhumerus -34.1219 -2.4858 -91.8951
rradius 36.5622
rwrist 29.4318
rhand -24.5702 -14.6059
rfingers 7.12502
rthumb 1.92666 -44.5769
lclavicle 1.67973e-014 -9.22361e-014
lhumerus -46.5198 -31.8882 106.15
lradius 39.0547
lwrist -16.73
lhand -36.7414 4.41926
lfingers 7.12502
lthumb -9.82513 34.17
rfemur 17.3299 -12.3823 19.3235
rtibia 22.7615
rfoot -22.6228 -3.99461
rtoes -10.4292
lfemur -13.1559 4.3017 -7.66307
ltibia 47.4154
lfoot -26.5428 -7.47656
ltoes -12.3565
398
root 0.344667 16.8426 34.0057 -12.6028 12.0483 -5.85836
lowerback 7.35361 0.448837 5.36564
upperback 6.5396 0.842688 3.81897
thorax 2.69108 0.555477 0.909653
lowerneck -6.2419 -4.05717 -6.46302
upperneck 46.6159 -4.69909 0.916411
head 19.1526 -2.73394 0.901992
rclavicle -1.88845e-015 -3.18055e-015
rhumerus -34.1219 -2.4858 -91.8951
rradius 36.5622
rwrist 29.4318
rhand -24.5702 -14.6059
rfingers 7.12502
rthumb 1.92666 -44.5769
lclavicle -1.88845e-015 -3.18055e-015
lhumerus -49.6344 -27.3556 105.104
lradius 43.3987
lwrist -13.3225
lhand -37.8201 6.83108
lfingers 7.12502
lthumb -10.8658 36.53
rfemur 18.5553 -12.2517 19.1807
rtibia 20.5787
rfoot -21.8761 -3.60199
rtoes -10.2283
lfemur -13.7757 4.67229 -8.11681
ltibia 44.4935
lfoot -27.0143 -8.82172
ltoes -12.3174
399
root 0.366271 16.8796 34.1894 -12.1351 11.7426 -5.8952
lowerback 7.24789 0.540178 5.60618
upperback 6.19961 0.986307 3.6591
thorax 2.40436 0.628898 0.598348
lowerneck -6.5049 -3.96539 -6.51158
upperneck 45.873 -4.4992 0.849795
head 18.7131 -2.67144 0.906435
rclavicle 2.18166e-014 4.45278e-014
rhumerus -34.1219 -2.4858 -91.8951
rradius 36.5622
rwrist 29.4318
rhand -24.5702 -14.6059
rfingers 7.12502
rthumb 1.92666 -44.5769
lclavicle -1.88845e-015 -3.18055e-015
lhumerus -49.6344 -27.3556 105.104
lradius 43.3987
lwrist -13.3225
lhand -37.8201 6.83108
lfingers 7.12502
lthumb -10.8658 36.53
rfemur 19.6351 -12.1873 19.2474
rtibia 18.6083
rfoot -21.2826 -3.32323
rtoes -10.4345
lfemur -14.4458 5.25016 -8.34593
ltibia 41.4885
lfoot -27.1572 -10.5696
ltoes -11.9511
400
root 0.406779 16.895 34.3842 -11.6717 11.143 -5.52361
lowerback 6.95918 0.787426 5.66441
upperback 6.00022 1.30503 3.36501
thorax 2.37313 0.791671 0.247772
lowerneck -6.7909 -3.90742 -6.69269
upperneck 44.988 -4.42595 1.02995
head 18.228 -2.6486 1.03096
rclavicle -5.91384e-015 -1.63003e-014
rhumerus -34.1219 -2.4858 -91.8951
rradius 36.5622
rwrist 29.4318
rhand -24.5702 -14.6059
rfingers 7.12502
rthumb 1.92666 -44.5769
lclavicle -1.88845e-015 -3.18055e-015
lhumerus -49.6344 -27.3556 105.104
lradius 43.3987
lwrist -13.3225
lhand -37.8201 6.83108
lfingers 7.12502
lthumb -10.8658 36.53
rfemur 21.1381 -12.2955 18.5112
rtibia 16.1588
rfoot -20.4293 -2.41085
rtoes -10.8884
lfemur -14.908 5.61658 -9.02343
ltibia 38.7694
lfoot -27.4985 -11.6181
ltoes -12.1991
401
root 0.396915 16.9359 34.5536 -10.0701 12.3208 -3.88092
lowerback 6.43028 0.663756 3.37954
upperback 5.30463 1.03442 2.9198
thorax 1.87961 0.577053 1.06722
lowerneck -6.96718 -3.79762 -6.92729
upperneck 44.0026 -4.20647 1.06816
head 17.6614 -2.59085 1.12177
rclavicle -2.93207e-014 1.86858e-014
rhumerus -34.1219 -2.4858 -91.8951
rradius 36.5622
rwrist 29.4318
rhand -24.5702 -14.6059
rfingers 7.12502
rthumb 1.92666 -44.5769
lclavicle -1.88845e-015 -3.18055e-015
lhumerus -49.6344 -27.3556 105.104
lradius 43.3987
lwrist -13.3225
lhand -37.8201 6.83108
lfingers 7.12502
lthumb -10.8658 36.53
rfemur 21.3842 -12.3957 17.3729
rtibia 13.827
rfoot -19.4531 -3.19408
rtoes -10.1728
lfemur -17.0091 5.59084 -11.3237
ltibia 36.0706
lfoot -27.3114 -13.7508
ltoes -12.2109
402
root 0.454438 16.9366 34.7406 -10.2856 10.173 -5.29446
lowerback 6.92824 1.12074 5.74558
upperback 5.05941 1.79869 2.97037
thorax 1.44063 1.01228 -0.248634
lowerneck -7.2044 -3.68264 -6.94199
upperneck 43.0527 -4.05153 1.14829
head 17.1488 -2.51677 1.1788
rclavicle 2.11954e-014 -3.22031e-014
rhumerus -34.1219 -2.4858 -91.8951
rradius 36.5622
rwrist 29.4318
rhand -24.5702 -14.6059
rfingers 7.12502
rthumb 1.92666 -44.5769
lclavicle -1.88845e-015 -3.18055e-015
lhumerus -49.6344 -27.3556 105.104
lradius 43.3987
lwrist -13.3225
lhand -37.8201 6.83108
lfingers 7.12502
lthumb -10.8658 36.53
rfemur 23.3855 -12.3652 18.1956
rtibia 10.9129
rfoot -18.3212 -1.28482
rtoes -10.796
lfemur -17.0441 7.26006 -9.69179
ltibia 34.0132
lfoot -28.1519 -14.8301
ltoes -12.1973
403
root 0.49487 16.942 34.8931 -10.0083 11.0657 -3.27663
lowerback 8.00008 0.910444 3.98411
upperback 4.74893 1.50407 2.25552
thorax 0.4735 0.813253 -0.0197505
lowerneck -7.48606 -3.55769 -7.36555
upperneck 41.9721 -3.83189 1.36034
head 16.6121 -2.45956 1.37525
rclavicle -5.96354e-016 1.94809e-014
rhumerus -45.2089 -1.26234 -88.216
rradius 70.3452
rwrist 198.417
rhand -13.3914 10.2927
rfingers 7.12502
rthumb 12.7158 -19.3001
lclavicle -1.88845e-015 -3.18055e-015
lhumerus -49.6344 -27.3556 105.104
lradius 43.3987
lwrist -13.3225
lhand -37.8201 6.83108
lfingers 7.12502
lthumb -10.8658 36.53
rfemur 25.963 -12.9555 15.9202
rtibia 7.03876
rfoot -16.4817 -0.956291
rtoes -10.0972
lfemur -17.7939 7.52597 -12.2382
ltibia 32.2435
lfoot -28.8832 -16.7256
ltoes -12.1918
404
root 0.522156 16.9708 35.092 -9.16894 8.64208 -4.94591
lowerback 7.31964 1.5156 6.13019
upperback 4.29561 2.41229 2.44782
thorax 0.499235 1.29739 -1.06473
lowerneck -7.76472 -3.40378 -7.57744
upperneck 40.8424 -3.69072 1.75032
head 16.0675 -2.37453 1.59506
rclavicle -2.37299e-014 -3.61788e-014
rhumerus -46.8417 9.6509 -98.7059
rradius 58.754
rwrist 375.201
rhand -23.1261 -10.9899
rfingers 7.12502
rthumb 3.32136 -40.9438
lclavicle -1.88845e-015 -3.18055e-015
lhumerus -49.6344 -27.3556 105.104
lradius 43.3987
lwrist -13.3225
lhand -37.8201 6.83108
lfingers 7.12502
lthumb -10.8658 36.53
rfemur 28.2783 -10.9925 18.1337
rtibia -6.36111e-015
rfoot -12.7356 -0.782099
rtoes -10.1565
lfemur -19.1474 8.84364 -10.4064
ltibia 31.0247
lfoot -29.5693 -16.4478
ltoes -11.8485
405
root 0.550452 16.9755 35.27 -8.69331 7.92172 -5.07661
lowerback 7.35241 1.6773 6.45634
upperback 4.03473 2.66089 2.30546
thorax 0.24976 1.41631 -1.41504
lowerneck -8.13203 -3.26308 -7.74308
upperneck 39.6721 -3.45535 1.84602
head 15.5316 -2.276 1.68579
rclavicle 4.7932e-014 5.40694e-014
rhumerus -46.8417 9.6509 -98.7059
rradius 58.754
rwrist 375.201
rhand -23.1261 -10.9899
rfingers 7.12502
rthumb 3.32136 -40.9438
lclavicle -1.88845e-015 -3.18055e-015
lhumerus -49.6344 -27.3556 105.104
lradius 43.3987
lwrist -13.3225
lhand -37.8201 6.83108
lfingers 7.12502
lthumb -10.8658 36.53
rfemur 28.3497 -10.4318 18.4431
rtibia -1.59028e-014
rfoot -12.9541 -1.02581
rtoes -11.7687
lfemur -20.4184 10.9142 -10.6476
ltibia 30.0529
lfoot -29.791 -17.874
ltoes -12.1911
